<svg viewBox="0 0 90 90" xmlns="http://www.w3.org/2000/svg"><path d="m75.55 57.64 12.65-12.65-12.65-12.65v-17.9h-17.9l-12.65-12.65-12.65 12.65h-17.9v17.9l-12.65 12.65 12.65 12.65v17.9h17.9l12.65 12.65 12.65-12.65h17.9z" fill="#ffeb97"/><circle cx="45" cy="44.99" fill="#ff8898" r="27.23"/><g fill="#576065"><path d="m30.45 35.57c2.82 0 4.26 1.68 4.26 4.63v.58h-2.71v-.78c0-1.32-.53-1.81-1.45-1.81s-1.45.5-1.45 1.81c0 3.79 5.66 4.5 5.66 9.76 0 2.95-1.47 4.63-4.31 4.63s-4.32-1.68-4.32-4.63v-1.11h2.74v1.35c0 1.32.58 1.79 1.5 1.79s1.5-.47 1.5-1.79c0-3.79-5.66-4.5-5.66-9.76-.03-2.99 1.42-4.67 4.24-4.67z"/><path d="m45.75 54.2h-2.92l-.5-3.34h-3.55l-.5 3.34h-2.66l2.95-18.42h4.24zm-6.6-5.84h2.79l-1.4-9.36z"/><path d="m47.09 35.78h2.91v15.79h4.76v2.63h-7.67z"/><path d="m58.9 43.54h4v2.63h-4v5.39h5v2.64h-7.9v-18.42h7.9v2.63h-5z"/><path d="m45 90a1.79 1.79 0 0 1 -1.27-.53l-12.13-12.13h-17.15a1.8 1.8 0 0 1 -1.8-1.8v-17.15l-12.12-12.13a1.8 1.8 0 0 1 0-2.55l12.12-12.12v-17.15a1.8 1.8 0 0 1 1.8-1.8h17.15l12.13-12.12a1.85 1.85 0 0 1 2.55 0l12.12 12.12h17.15a1.8 1.8 0 0 1 1.8 1.8v17.15l12.12 12.13a1.8 1.8 0 0 1 0 2.55l-12.12 12.12v17.15a1.8 1.8 0 0 1 -1.8 1.8h-17.15l-12.13 12.12a1.79 1.79 0 0 1 -1.27.54zm-28.75-16.26h16.1a1.8 1.8 0 0 1 1.27.53l11.38 11.37 11.38-11.38a1.8 1.8 0 0 1 1.27-.53h16.1v-16.09a1.8 1.8 0 0 1 .53-1.27l11.37-11.37-11.38-11.39a1.8 1.8 0 0 1 -.53-1.27v-16.1h-16.09a1.8 1.8 0 0 1 -1.27-.53l-11.38-11.38-11.38 11.39a1.8 1.8 0 0 1 -1.27.53h-16.1v16.09a1.8 1.8 0 0 1 -.53 1.27l-11.37 11.39 11.38 11.37a1.8 1.8 0 0 1 .53 1.27z"/><path d="m45 74a29 29 0 1 1 29-29 29.07 29.07 0 0 1 -29 29zm0-54.47a25.43 25.43 0 1 0 25.44 25.47 25.46 25.46 0 0 0 -25.44-25.45z"/></g><path d="m45 28a1.8 1.8 0 0 1 -1.8-1.8v-.2a1.8 1.8 0 1 1 3.6 0v.3a1.8 1.8 0 0 1 -1.8 1.7z" fill="#fff"/><path d="m36.78 30.81a1.8 1.8 0 0 1 -1.27-.52l-.21-.21a1.8 1.8 0 1 1 2.54-2.55l.21.21a1.8 1.8 0 0 1 -1.27 3.08z" fill="#fff"/><path d="m53.22 30.81a1.8 1.8 0 0 1 -1.22-3.07l.21-.21a1.8 1.8 0 1 1 2.54 2.55l-.21.21a1.8 1.8 0 0 1 -1.32.52z" fill="#fff"/><path d="m45 65.83a1.8 1.8 0 0 1 -1.8-1.83v-.3a1.8 1.8 0 0 1 3.6 0v.3a1.8 1.8 0 0 1 -1.8 1.83z" fill="#fff"/><path d="m53.43 63a1.79 1.79 0 0 1 -1.27-.53l-.21-.21a1.8 1.8 0 0 1 2.55-2.55l.21.21a1.8 1.8 0 0 1 -1.28 3.08z" fill="#fff"/><path d="m36.57 63a1.8 1.8 0 0 1 -1.27-3.1l.21-.21a1.8 1.8 0 0 1 2.55 2.55l-.21.21a1.79 1.79 0 0 1 -1.28.55z" fill="#fff"/></svg>